<?xml version="1.0" standalone="no"?>
<!DOCTYPE svg PUBLIC "-//W3C//DTD SVG 20010904//EN"
 "http://www.w3.org/TR/2001/REC-SVG-20010904/DTD/svg10.dtd">
<svg version="1.0" xmlns="http://www.w3.org/2000/svg"
 width="1200.000000pt" height="408.000000pt" viewBox="0 0 1200.000000 408.000000"
 preserveAspectRatio="xMidYMid meet">

<g transform="translate(0.000000,408.000000) scale(0.100000,-0.100000)"
fill="#000000" stroke="none">
<path d="M4664 2540 c-164 -25 -252 -129 -224 -265 17 -81 69 -123 203 -165
163 -51 169 -53 204 -86 63 -60 36 -139 -57 -164 -60 -16 -110 -5 -212 48 -99
51 -129 51 -158 -1 -23 -42 8 -93 80 -129 87 -45 197 -63 294 -49 191 27 288
134 257 283 -22 100 -82 145 -261 194 -107 29 -165 56 -174 79 -19 51 6 107
56 124 54 19 92 12 178 -30 93 -46 117 -46 153 2 27 37 15 64 -41 100 -80 51
-199 74 -298 59z"/>
<path d="M5517 2540 c-97 -25 -212 -110 -261 -194 -121 -206 -37 -476 178
-577 223 -104 475 -22 579 190 63 128 45 313 -40 426 -81 106 -182 155 -328
161 -49 2 -107 -1 -128 -6z m211 -166 c186 -92 188 -363 4 -472 -127 -74 -294
4 -339 157 -19 66 -13 142 15 198 24 46 90 109 136 129 51 22 125 17 184 -12z"/>
<path d="M6485 2534 c-22 -8 -46 -21 -53 -28 -11 -11 -18 -9 -39 11 -22 23
-31 25 -84 21 -38 -3 -64 -10 -70 -19 -5 -8 -9 -181 -9 -385 0 -425 -6 -399
90 -399 93 0 90 -10 90 275 0 136 3 262 6 280 9 44 61 95 112 111 38 11 47 10
91 -10 56 -27 100 -22 131 12 26 27 26 79 1 101 -49 44 -185 59 -266 30z"/>
<path d="M7127 2529 c-90 -21 -178 -83 -232 -164 -91 -138 -90 -321 3 -459 76
-114 186 -170 332 -170 97 0 151 13 205 50 20 14 38 24 39 22 19 -44 36 -63
61 -70 44 -13 113 0 125 22 6 11 10 157 10 379 0 348 -1 362 -20 381 -14 14
-33 20 -64 20 -65 0 -95 -14 -102 -49 l-6 -29 -45 28 c-73 46 -204 63 -306 39z
m199 -150 c86 -41 143 -134 144 -234 0 -105 -35 -178 -111 -231 -47 -32 -127
-43 -182 -25 -46 16 -114 81 -138 134 -29 65 -26 169 7 235 59 118 179 170
280 121z"/>
</g>
</svg>
