<svg xmlns="http://www.w3.org/2000/svg" width="1600" height="544" viewBox="0 0 1200 408">
  <path d="M466.4 154c-16.4 2.5-25.2 12.9-22.4 26.5 1.7 8.1 6.9 12.3 20.3 16.5 16.3 5.1 16.9 5.3 20.4 8.6 6.3 6 3.6 13.9-5.7 16.4-6 1.6-11 .5-21.2-4.8-9.9-5.1-12.9-5.1-15.8.1-2.3 4.2.8 9.3 8 12.9 8.7 4.5 19.7 6.3 29.4 4.9 19.1-2.7 28.8-13.4 25.7-28.3-2.2-10-8.2-14.5-26.1-19.4-10.7-2.9-16.5-5.6-17.4-7.9-1.9-5.1.6-10.7 5.6-12.4 5.4-1.9 9.2-1.2 17.8 3 9.3 4.6 11.7 4.6 15.3-.2 2.7-3.7 1.5-6.4-4.1-10-8-5.1-19.9-7.4-29.8-5.9m85.3 0c-9.7 2.5-21.2 11-26.1 19.4-12.1 20.6-3.7 47.6 17.8 57.7 22.3 10.4 47.5 2.2 57.9-19 6.3-12.8 4.5-31.3-4-42.6-8.1-10.6-18.2-15.5-32.8-16.1-4.9-.2-10.7.1-12.8.6m21.1 16.6c18.6 9.2 18.8 36.3.4 47.2-12.7 7.4-29.4-.4-33.9-15.7-1.9-6.6-1.3-14.2 1.5-19.8 2.4-4.6 9-10.9 13.6-12.9 5.1-2.2 12.5-1.7 18.4 1.2m75.7-16c-2.2.8-4.6 2.1-5.3 2.8-1.1 1.1-1.8.9-3.9-1.1-2.2-2.3-3.1-2.5-8.4-2.1-3.8.3-6.4 1-7 1.9-.5.8-.9 18.1-.9 38.5 0 42.5-.6 39.9 9 39.9 9.3 0 9 1 9-27.5 0-13.6.3-26.2.6-28 .9-4.4 6.1-9.5 11.2-11.1 3.8-1.1 4.7-1 9.1 1 5.6 2.7 10 2.2 13.1-1.2 2.6-2.7 2.6-7.9.1-10.1-4.9-4.4-18.5-5.9-26.6-3m64.2.5c-9 2.1-17.8 8.3-23.2 16.4-9.1 13.8-9 32.1.3 45.9 7.6 11.4 18.6 17 33.2 17 9.7 0 15.1-1.3 20.5-5 2-1.4 3.8-2.4 3.9-2.2 1.9 4.4 3.6 6.3 6.1 7 4.4 1.3 11.3 0 12.5-2.2.6-1.1 1-15.7 1-37.9 0-34.8-.1-36.2-2-38.1-1.4-1.4-3.3-2-6.4-2-6.5 0-9.5 1.4-10.2 4.9l-.6 2.9-4.5-2.8c-7.3-4.6-20.4-6.3-30.6-3.9m19.9 15c8.6 4.1 14.3 13.4 14.4 23.4 0 10.5-3.5 17.8-11.1 23.1-4.7 3.2-12.7 4.3-18.2 2.5-4.6-1.6-11.4-8.1-13.8-13.4-2.9-6.5-2.6-16.9.7-23.5 5.9-11.8 17.9-17 28-12.1"/>
</svg>
